<svg width="26" height="30" viewBox="0 0 26 30" fill="none" xmlns="http://www.w3.org/2000/svg">
<path d="M21.5 3.66683H20.0833V2.25016C20.0833 1.87444 19.9341 1.5141 19.6684 1.24843C19.4027 0.982752 19.0424 0.833496 18.6667 0.833496C18.2909 0.833496 17.9306 0.982752 17.6649 1.24843C17.3993 1.5141 17.25 1.87444 17.25 2.25016V3.66683H8.75V2.25016C8.75 1.87444 8.60074 1.5141 8.33507 1.24843C8.06939 0.982752 7.70906 0.833496 7.33333 0.833496C6.95761 0.833496 6.59727 0.982752 6.3316 1.24843C6.06592 1.5141 5.91667 1.87444 5.91667 2.25016V3.66683H4.5C3.37283 3.66683 2.29183 4.1146 1.4948 4.91163C0.697767 5.70866 0.25 6.78966 0.25 7.91683V24.9168C0.25 26.044 0.697767 27.125 1.4948 27.922C2.29183 28.7191 3.37283 29.1668 4.5 29.1668H21.5C22.6272 29.1668 23.7082 28.7191 24.5052 27.922C25.3022 27.125 25.75 26.044 25.75 24.9168V7.91683C25.75 6.78966 25.3022 5.70866 24.5052 4.91163C23.7082 4.1146 22.6272 3.66683 21.5 3.66683ZM4.5 6.50016H5.91667V7.91683C5.91667 8.29255 6.06592 8.65289 6.3316 8.91856C6.59727 9.18424 6.95761 9.3335 7.33333 9.3335C7.70906 9.3335 8.06939 9.18424 8.33507 8.91856C8.60074 8.65289 8.75 8.29255 8.75 7.91683V6.50016H17.25V7.91683C17.25 8.29255 17.3993 8.65289 17.6649 8.91856C17.9306 9.18424 18.2909 9.3335 18.6667 9.3335C19.0424 9.3335 19.4027 9.18424 19.6684 8.91856C19.9341 8.65289 20.0833 8.29255 20.0833 7.91683V6.50016H21.5C21.8757 6.50016 22.2361 6.64942 22.5017 6.91509C22.7674 7.18077 22.9167 7.54111 22.9167 7.91683V13.5835H3.08333V7.91683C3.08333 7.54111 3.23259 7.18077 3.49827 6.91509C3.76394 6.64942 4.12428 6.50016 4.5 6.50016ZM21.5 26.3335H4.5C4.12428 26.3335 3.76394 26.1842 3.49827 25.9186C3.23259 25.6529 3.08333 25.2926 3.08333 24.9168V16.4168H22.9167V24.9168C22.9167 25.2926 22.7674 25.6529 22.5017 25.9186C22.2361 26.1842 21.8757 26.3335 21.5 26.3335Z" fill="#738AA3"/>
</svg>
