<svg xmlns="http://www.w3.org/2000/svg" width="25" height="25" fill="none" viewBox="0 0 25 25"><path fill="#FCC9C5" d="M23.4082 17.0266L18.1373 14.7677C17.9121 14.6717 17.6618 14.6515 17.4242 14.71C17.1865 14.7686 16.9743 14.9028 16.8195 15.0924L14.4852 17.9443C10.8218 16.2171 7.87358 13.2688 6.14631 9.60541L8.99827 7.27113C9.18825 7.11662 9.32271 6.90441 9.3813 6.66665C9.4399 6.42888 9.41943 6.17849 9.323 5.9534L7.06402 0.682444C6.95818 0.439796 6.77099 0.241682 6.53473 0.122263C6.29847 0.00284497 6.02795 -0.0303929 5.76981 0.0282811L0.875355 1.15777C0.626476 1.21524 0.404426 1.35537 0.245445 1.5553C0.0864649 1.75522 -5.73315e-05 2.00312 2.85018e-08 2.25855C2.85018e-08 14.33 9.7842 24.0954 21.8368 24.0954C22.0923 24.0955 22.3403 24.009 22.5403 23.8501C22.7404 23.6911 22.8806 23.469 22.9381 23.22L24.0675 18.3255C24.1258 18.0661 24.0919 17.7945 23.9716 17.5575C23.8512 17.3204 23.652 17.1327 23.4082 17.0266Z"/></svg>