<svg xmlns="http://www.w3.org/2000/svg" width="28" height="25" fill="none" viewBox="0 0 28 25"><path fill="#000" fill-opacity=".17" d="M13.7989 0C6.17914 0 0.00357645 5.01697 0.00357645 11.2087C0.00357645 13.7738 1.07595 16.1233 2.85425 18.0148C2.05132 20.1379 0.380792 21.9378 0.353848 21.9594C-0.00181234 22.3366 -0.0988108 22.8862 0.105964 23.3605C0.310738 23.8347 0.779564 24.1418 1.29689 24.1418C4.611 24.1418 7.22457 22.7569 8.79271 21.6468C10.3501 22.1372 12.0314 22.4174 13.7989 22.4174C21.4187 22.4174 27.5942 17.4004 27.5942 11.2087C27.5942 5.01697 21.4187 0 13.7989 0ZM13.7989 19.8308C12.3601 19.8308 10.9375 19.6098 9.57409 19.1787L8.35083 18.7907L7.30001 19.5344C6.52941 20.0787 5.47321 20.6876 4.20145 21.0972C4.59483 20.4451 4.97744 19.7122 5.27382 18.9309L5.84504 17.4166L4.73494 16.2418C3.75957 15.2018 2.5902 13.4828 2.5902 11.2087C2.5902 6.45578 7.61795 2.58662 13.7989 2.58662C19.9799 2.58662 25.0076 6.45578 25.0076 11.2087C25.0076 15.9616 19.9799 19.8308 13.7989 19.8308Z"/></svg>