<svg width="17" height="17" viewBox="0 0 17 17" fill="none" xmlns="http://www.w3.org/2000/svg">
<path d="M8.07067 10.7508L4.55357 14.2679L5.80284 15.4453C6.37659 16.019 5.97026 17 5.15889 17H0.908893C0.405913 17 0 16.5923 0 16.0893V11.8393C0 11.0279 0.979132 10.6216 1.55284 11.1953L2.73214 12.4464L6.24925 8.92933C6.48634 8.69224 6.87077 8.69224 7.10786 8.92933L8.07067 9.89214C8.3078 10.1292 8.3078 10.5136 8.07067 10.7508ZM8.92933 6.24925L12.4464 2.73214L11.1972 1.5547C10.6234 0.980953 11.0297 0 11.8411 0H16.0911C16.5941 0 17 0.407734 17 0.910714V5.16071C17 5.97208 16.0209 6.37842 15.4472 5.8047L14.2679 4.55357L10.7508 8.07067C10.5137 8.30776 10.1292 8.30776 9.89214 8.07067L8.92933 7.10786C8.6922 6.87077 8.6922 6.48637 8.92933 6.24925Z" fill="#3A3530"/>
</svg>
