<svg xmlns="http://www.w3.org/2000/svg" width="24" height="24" fill="none" viewBox="0 0 17 26"><path fill="#B3B3B3" d="M10.2394 25.4819H5.2427C4.91139 25.4819 4.59366 25.3503 4.35939 25.116C4.12513 24.8817 3.99352 24.564 3.99352 24.2327V16.4878H1.49515C1.16385 16.4878 0.846116 16.3561 0.611849 16.1219C0.377582 15.8876 0.245972 15.5699 0.245972 15.2386V10.7415C0.245972 10.4102 0.377582 10.0925 0.611849 9.85821C0.846116 9.62395 1.16385 9.49234 1.49515 9.49234H3.99352V7.36873C4.08108 5.46542 4.91869 3.6742 6.32321 2.38673C7.72772 1.09925 9.58488 0.420268 11.4886 0.49823H15.2361C15.5675 0.49823 15.8852 0.62984 16.1195 0.864107C16.3537 1.09837 16.4853 1.41611 16.4853 1.74741V6.24447C16.4853 6.57577 16.3537 6.8935 16.1195 7.12777C15.8852 7.36204 15.5675 7.49365 15.2361 7.49365H11.4886V9.49234H15.2361C15.429 9.49088 15.6196 9.5341 15.793 9.61862C15.9664 9.70315 16.1178 9.82667 16.2355 9.97952C16.3519 10.1347 16.4305 10.3148 16.4652 10.5056C16.4999 10.6964 16.4897 10.8926 16.4354 11.0788L15.1862 15.5759C15.1106 15.8461 14.9463 16.0829 14.7197 16.2484C14.4931 16.4138 14.2174 16.4981 13.937 16.4878H11.4886V24.2327C11.4886 24.564 11.357 24.8817 11.1227 25.116C10.8885 25.3503 10.5707 25.4819 10.2394 25.4819V25.4819ZM6.49188 22.9835H8.99024V15.2386C8.99024 14.9073 9.12185 14.5895 9.35612 14.3553C9.59039 14.121 9.90812 13.9894 10.2394 13.9894H13.0376L13.5872 11.9907H10.2394C9.90812 11.9907 9.59039 11.8591 9.35612 11.6248C9.12185 11.3906 8.99024 11.0728 8.99024 10.7415V7.36873C9.02232 6.72801 9.29963 6.12418 9.76473 5.68233C10.2298 5.24049 10.8471 4.99448 11.4886 4.99528H13.987V2.99659H11.4886C10.2479 2.921 9.02749 3.33766 8.09206 4.15616C7.15662 4.97467 6.58165 6.129 6.49188 7.36873V10.7415C6.49188 11.0728 6.36027 11.3906 6.126 11.6248C5.89174 11.8591 5.574 11.9907 5.2427 11.9907H2.74433V13.9894H5.2427C5.574 13.9894 5.89174 14.121 6.126 14.3553C6.36027 14.5895 6.49188 14.9073 6.49188 15.2386V22.9835Z"/></svg>