<svg width="76" height="25" viewBox="0 0 76 25" fill="none" xmlns="http://www.w3.org/2000/svg">
    <path d="M61.7989 0C54.1791 0 48.0036 5.01697 48.0036 11.2087C48.0036 13.7738 49.0759 16.1233 50.8543 18.0148C50.0513 20.1379 48.3808 21.9378 48.3538 21.9594C47.9982 22.3366 47.9012 22.8862 48.106 23.3605C48.3107 23.8347 48.7796 24.1418 49.2969 24.1418C52.611 24.1418 55.2246 22.7569 56.7927 21.6468C58.3501 22.1372 60.0314 22.4174 61.7989 22.4174C69.4187 22.4174 75.5942 17.4004 75.5942 11.2087C75.5942 5.01697 69.4187 0 61.7989 0ZM61.7989 19.8308C60.3601 19.8308 58.9375 19.6098 57.5741 19.1787L56.3508 18.7907L55.3 19.5344C54.5294 20.0787 53.4732 20.6876 52.2015 21.0972C52.5948 20.4451 52.9774 19.7122 53.2738 18.9309L53.845 17.4166L52.7349 16.2418C51.7596 15.2018 50.5902 13.4828 50.5902 11.2087C50.5902 6.45578 55.618 2.58662 61.7989 2.58662C67.9799 2.58662 73.0076 6.45578 73.0076 11.2087C73.0076 15.9616 67.9799 19.8308 61.7989 19.8308Z" fill="black" fill-opacity="0.17"/>
    <path d="M24.6165 1.74129C21.5126 -0.876955 16.7171 -0.483679 13.7474 2.54939C10.7778 -0.483679 5.98228 -0.882342 2.87837 1.74129C-1.15993 5.15147 -0.569223 10.7112 2.30914 13.6581L11.7283 23.2852C12.2653 23.8347 12.9849 24.1418 13.7474 24.1418C14.5153 24.1418 15.2296 23.8401 15.7666 23.2906L25.1857 13.6635C28.0587 10.7166 28.6602 5.15686 24.6165 1.74129ZM23.3491 11.8425L13.93 21.4697C13.8011 21.599 13.6937 21.599 13.5648 21.4697L4.14571 11.8425C2.18563 9.83845 1.78824 6.04577 4.53773 3.72383C6.62669 1.96217 9.84874 2.22615 11.8679 4.2895L13.7474 6.21278L15.627 4.2895C17.6568 2.21537 20.8789 1.96217 22.9571 3.71844C25.7012 6.04038 25.2931 9.85462 23.3491 11.8425Z" fill="#CFCFCF"/>
</svg>