<svg xmlns="http://www.w3.org/2000/svg" width="24" height="24" fill="none" viewBox="0 0 26 27"><path fill="#B3B3B3" d="M22.9837 26.482H20.8975C20.2349 26.482 19.5995 26.2188 19.1309 25.7503C18.6624 25.2817 18.3992 24.6463 18.3992 23.9837V17.2756C18.4103 17.0125 18.3308 16.7535 18.1739 16.5421C18.017 16.3306 17.7923 16.1794 17.5372 16.1138C17.3889 16.0912 17.2374 16.1007 17.093 16.1417C16.9486 16.1826 16.8147 16.2541 16.7003 16.3512C16.5825 16.4511 16.488 16.5755 16.4233 16.7158C16.3585 16.856 16.3252 17.0087 16.3255 17.1631V23.9837C16.3255 24.6463 16.0623 25.2817 15.5938 25.7503C15.1252 26.2188 14.4898 26.482 13.8272 26.482H11.741C11.0784 26.482 10.443 26.2188 9.97443 25.7503C9.5059 25.2817 9.24268 24.6463 9.24268 23.9837V17.1631C9.24268 16.0968 9.4527 15.041 9.86075 14.0559C10.2688 13.0707 10.8669 12.1756 11.6209 11.4217C12.3749 10.6677 13.27 10.0696 14.2551 9.66153C15.2402 9.25348 16.2961 9.04346 17.3624 9.04346C18.4286 9.04346 19.4845 9.25348 20.4696 9.66153C21.4547 10.0696 22.3499 10.6677 23.1038 11.4217C23.8578 12.1756 24.4559 13.0707 24.864 14.0559C25.272 15.041 25.482 16.0968 25.482 17.1631V23.9837C25.482 24.6463 25.2188 25.2817 24.7503 25.7503C24.2817 26.2188 23.6463 26.482 22.9837 26.482ZM17.3624 13.603C17.5579 13.5906 17.754 13.5906 17.9495 13.603C18.7881 13.7643 19.5432 14.2158 20.0823 14.8782C20.6214 15.5406 20.91 16.3716 20.8975 17.2256V23.9837H22.9837V17.1631C22.9837 15.6723 22.3914 14.2425 21.3372 13.1883C20.283 12.1341 18.8532 11.5418 17.3624 11.5418C15.8715 11.5418 14.4417 12.1341 13.3875 13.1883C12.3333 14.2425 11.741 15.6723 11.741 17.1631V23.9837H13.8272V17.1631C13.8271 16.2232 14.1988 15.3215 14.8611 14.6545C15.5233 13.9876 16.4225 13.6096 17.3624 13.603Z"/><path fill="#B3B3B3" d="M5.49514 26.4819H2.99678C2.33417 26.4819 1.6987 26.2187 1.23017 25.7502C0.761633 25.2817 0.498413 24.6462 0.498413 23.9836V11.4918C0.498413 10.8292 0.761633 10.1937 1.23017 9.72516C1.6987 9.25663 2.33417 8.99341 2.99678 8.99341H5.49514C6.15775 8.99341 6.79321 9.25663 7.26175 9.72516C7.73028 10.1937 7.9935 10.8292 7.9935 11.4918V23.9836C7.9935 24.6462 7.73028 25.2817 7.26175 25.7502C6.79321 26.2187 6.15775 26.4819 5.49514 26.4819ZM2.99678 11.4918V23.9836H5.49514V11.4918H2.99678Z"/><path fill="#B3B3B3" d="M4.24596 7.74411C3.50477 7.74411 2.78022 7.52432 2.16394 7.11254C1.54765 6.70075 1.06732 6.11547 0.78368 5.43069C0.500037 4.74592 0.425823 3.99241 0.570423 3.26546C0.715023 2.53851 1.07194 1.87076 1.59605 1.34666C2.12015 0.822552 2.7879 0.465633 3.51485 0.321033C4.2418 0.176433 4.99531 0.250647 5.68008 0.53429C6.36486 0.817933 6.95014 1.29827 7.36193 1.91455C7.77371 2.53083 7.9935 3.25538 7.9935 3.99657C7.9935 4.99048 7.59867 5.94368 6.89587 6.64648C6.19307 7.34928 5.23987 7.74411 4.24596 7.74411ZM4.24596 2.74739C3.99889 2.74739 3.75738 2.82065 3.55195 2.95791C3.34652 3.09518 3.18641 3.29027 3.09187 3.51853C2.99732 3.74679 2.97258 3.99796 3.02078 4.24027C3.06898 4.48259 3.18795 4.70517 3.36265 4.87987C3.53736 5.05458 3.75994 5.17355 4.00226 5.22175C4.24457 5.26995 4.49574 5.24521 4.724 5.15066C4.95226 5.05612 5.14735 4.896 5.28462 4.69058C5.42188 4.48515 5.49514 4.24363 5.49514 3.99657C5.49514 3.66527 5.36353 3.34753 5.12926 3.11327C4.895 2.879 4.57726 2.74739 4.24596 2.74739Z"/></svg>