<svg xmlns="http://www.w3.org/2000/svg" width="28" height="25" fill="none" viewBox="0 0 28 25"><path fill="#CFCFCF" d="M24.6165 1.74129C21.5126 -0.876955 16.7171 -0.483679 13.7474 2.54939C10.7778 -0.483679 5.98228 -0.882342 2.87837 1.74129C-1.15993 5.15147 -0.569223 10.7112 2.30914 13.6581L11.7283 23.2852C12.2653 23.8347 12.9849 24.1418 13.7474 24.1418C14.5153 24.1418 15.2296 23.8401 15.7666 23.2906L25.1857 13.6635C28.0587 10.7166 28.6602 5.15686 24.6165 1.74129ZM23.3491 11.8425L13.93 21.4697C13.8011 21.599 13.6937 21.599 13.5648 21.4697L4.14571 11.8425C2.18563 9.83845 1.78824 6.04577 4.53773 3.72383C6.62669 1.96217 9.84874 2.22615 11.8679 4.2895L13.7474 6.21278L15.627 4.2895C17.6568 2.21537 20.8789 1.96217 22.9571 3.71844C25.7012 6.04038 25.2931 9.85462 23.3491 11.8425Z"/></svg>