<svg xmlns="http://www.w3.org/2000/svg" width="29" height="25" fill="none" viewBox="0 0 29 25"><path fill="#FCC9C5" d="M14.2894 0C6.39879 0 0.00370358 5.19531 0.00370358 11.6071C0.00370358 14.2634 1.11419 16.6964 2.95571 18.6551C2.12424 20.8538 0.394329 22.7176 0.366427 22.74C-0.00187677 23.1306 -0.102323 23.6998 0.10973 24.1908C0.321784 24.6819 0.807275 25 1.34299 25C4.77491 25 7.48138 23.5658 9.10527 22.4163C10.718 22.9241 12.4591 23.2143 14.2894 23.2143C22.18 23.2143 28.5751 18.019 28.5751 11.6071C28.5751 5.19531 22.18 0 14.2894 0ZM14.2894 20.5357C12.7995 20.5357 11.3262 20.3069 9.91442 19.8605L8.64768 19.4587L7.55951 20.2288C6.76152 20.7924 5.66777 21.423 4.3508 21.8471C4.75817 21.1719 5.15437 20.4129 5.46129 19.6038L6.05281 18.0357L4.90326 16.8192C3.89321 15.7422 2.68228 13.9621 2.68228 11.6071C2.68228 6.68527 7.88875 2.67857 14.2894 2.67857C20.6901 2.67857 25.8966 6.68527 25.8966 11.6071C25.8966 16.529 20.6901 20.5357 14.2894 20.5357Z"/></svg>