<svg width="64" height="63" viewBox="0 0 64 63" fill="none" xmlns="http://www.w3.org/2000/svg">
<circle cx="31.5" cy="31.5" r="31.5" fill="#589BF7"/>
<mask id="mask0_463_119" style="mask-type:alpha" maskUnits="userSpaceOnUse" x="0" y="0" width="64" height="63">
<circle cx="31.656" cy="31.3765" r="31.3765" fill="white"/>
</mask>
<g mask="url(#mask0_463_119)">
<path d="M9.94869 118.585C25.9804 122.695 57.3982 110.483 57.3982 110.483C57.3982 110.483 55.0808 45.5287 52.7792 43.6174C50.5193 41.7408 7.73667 45.9984 -0.0587857 54.3039C-4.25923 58.7792 8.409 99.6686 9.94869 118.585Z" fill="#FFC562"/>
<mask id="mask1_463_119" style="mask-type:alpha" maskUnits="userSpaceOnUse" x="-1" y="43" width="59" height="77">
<path fill-rule="evenodd" clip-rule="evenodd" d="M9.94869 118.585C25.9804 122.695 57.3982 110.483 57.3982 110.483C57.3982 110.483 55.0808 45.5287 52.7792 43.6174C50.5193 41.7408 7.73667 45.9984 -0.0587857 54.3039C-4.25923 58.7792 8.409 99.6686 9.94869 118.585Z" fill="white"/>
</mask>
<g mask="url(#mask1_463_119)">
<path d="M51.2267 62.4838C54.7324 92.4484 30.1699 92.6998 30.1699 92.6998C30.1699 92.6998 38.9738 101.484 40.5178 101.566C42.0619 101.648 65.5969 84.7888 65.5969 84.7888L57.3981 66.4785L51.2267 62.4838Z" fill="#D89D35"/>
<path d="M4.22988 71.9237C15.7004 61.9655 11.4447 103.58 30.17 92.6999C48.8954 81.82 58.5453 102.528 58.5453 102.528C58.5453 102.528 23.0623 118.88 39.1608 116.533C55.2592 114.186 -5.02148 131.562 -5.02148 131.562L0.533891 68.2848" fill="#D89D35"/>
</g>
<path d="M50.7575 62.5654L54.5386 84.309L24.6249 96.1865C22.2054 104.875 26.4945 112.463 26.4945 112.463C26.4945 112.463 65.9762 102.125 68.6157 100.146C71.2551 98.1661 61.7165 43.2992 51.622 43.2992" fill="#FFC562"/>
<path d="M42.0664 11.6329C40.7527 10.5844 39.0744 9.98433 37.3315 9.82481L22.2881 8.44765C15.9125 7.864 10.8886 13.2705 12.6205 18.8511L18.3281 37.241C18.3281 37.241 27.8796 41.5027 40.5866 28.9074C49.5877 19.9855 45.3208 14.2308 42.0664 11.6329Z" fill="#4B4D5C"/>
<path d="M36.0811 45.2227L35.0153 26.7196L21.9636 29.902L20.7827 44.932L31.0265 51.958" fill="#FF9763"/>
<path d="M28.7265 35.6747C33.2406 37.1076 39.4439 38.2766 40.918 36.4561C44.9053 31.5318 42.7766 17.1497 37.8077 13.9877C38.6922 23.5297 29.0004 26.5209 23.9021 27.43L23.9246 29.7216" fill="#FF9763"/>
<path d="M27.8634 27.0544C21.0244 19.4717 15.4845 28.9817 24.8214 31.1723L27.8634 27.0544Z" fill="#FF9763"/>
<path d="M39.2207 23.1737C39.7505 23.1037 40.2368 23.4764 40.3068 24.0062L40.5208 25.6263C40.5908 26.1561 40.2181 26.6424 39.6883 26.7124C39.4338 26.746 39.1765 26.6771 38.9728 26.521C38.7692 26.3649 38.6359 26.1342 38.6023 25.8798L38.3882 24.2597C38.3182 23.7299 38.691 23.2437 39.2208 23.1737L39.2207 23.1737Z" fill="#190000"/>
<path d="M39.6506 19.8516C36.736 20.1059 36.2497 21.3923 38.082 21.3522C39.9144 21.312 41.5548 19.6855 39.6506 19.8516Z" fill="#190000"/>
<path d="M42.054 24.6937C45.8835 26.49 45.0693 30.3804 42.5035 29.8207L42.054 24.6937Z" fill="#FF9763"/>
<ellipse opacity="0.27" cx="33.5537" cy="27.5289" rx="2.52663" ry="2.34552" fill="#E84B23"/>
<path d="M36.0813 29.2606C37.5234 30.9947 39.4416 30.5457 39.4416 30.5457" stroke="#993443" stroke-width="3.65863" stroke-linecap="round" stroke-linejoin="round"/>
<path d="M25.347 26.9839C24.9952 26.3453 24.1926 26.0571 23.5013 26.2336C23.129 26.3329 22.8084 26.5701 22.6046 26.8972C22.5512 26.9889 22.506 27.0853 22.4697 27.185C22.4464 27.2406 22.4278 27.2981 22.4143 27.3568C22.3736 27.5217 22.3587 27.6919 22.3702 27.8613C22.4093 28.2731 22.5577 28.6927 22.8875 28.9641C23.0166 29.0858 23.1859 29.1559 23.3633 29.1611C23.5415 29.1598 23.7121 29.0891 23.839 28.9641C23.9648 28.8376 24.0356 28.6667 24.0361 28.4883C24.0378 28.3096 23.9666 28.1378 23.839 28.0126C23.7924 27.9742 23.7498 27.9312 23.7119 27.8841L23.8171 28.0203C23.7695 27.9585 23.7297 27.891 23.6987 27.8195L23.7665 27.9802C23.7318 27.8964 23.7081 27.8085 23.6958 27.7187L23.7199 27.8975C23.7088 27.807 23.7089 27.7155 23.72 27.6251L23.696 27.8039C23.7084 27.7141 23.7323 27.6263 23.7672 27.5427L23.6994 27.7034C23.7283 27.6375 23.7646 27.5751 23.8076 27.5174L23.7024 27.6535C23.7468 27.5964 23.7982 27.5451 23.8554 27.5008L23.7192 27.606C23.7714 27.5675 23.8275 27.5349 23.8868 27.5086L23.726 27.5764C23.8019 27.5446 23.8815 27.5225 23.9629 27.5108L23.784 27.5348C23.8781 27.5228 23.9733 27.5232 24.0673 27.5361L23.8885 27.512C23.9766 27.5253 24.0628 27.5491 24.1453 27.5829L23.9846 27.5151C24.0605 27.5476 24.1322 27.589 24.1982 27.6386L24.0621 27.5334C24.1223 27.5802 24.1764 27.6344 24.2232 27.6947L24.118 27.5585C24.1427 27.5918 24.1651 27.6267 24.1851 27.663C24.3061 27.8714 24.5291 27.9992 24.77 27.9981C25.0109 27.9971 25.2329 27.8674 25.352 27.658C25.4711 27.4486 25.4692 27.1915 25.347 26.9839L25.347 26.9839Z" fill="#373947"/>
<path d="M30.4603 13.5693C30.4973 13.7136 30.5266 13.8589 30.5506 14.0059C30.5711 14.1314 30.5394 13.8949 30.5474 13.9817C30.5508 14.0186 30.5555 14.0555 30.5589 14.0925C30.5656 14.1665 30.5704 14.2407 30.5733 14.315C30.5789 14.4561 30.5778 14.5973 30.5699 14.7385C30.5658 14.8127 30.5599 14.8868 30.5521 14.9608C30.5507 14.9756 30.549 14.9904 30.5473 15.0051C30.5411 15.0575 30.5444 15.0347 30.5572 14.9369C30.5413 14.9534 30.5439 15.0255 30.5404 15.0472C30.4931 15.3335 30.4183 15.6145 30.317 15.8864C30.304 15.9212 30.2895 15.9555 30.2766 15.9903C30.246 16.0731 30.3464 15.8365 30.2837 15.9733C30.2527 16.0409 30.2216 16.1083 30.188 16.1746C30.1207 16.3073 30.046 16.4358 29.9658 16.5611C29.7815 16.8824 29.8889 17.2921 30.2071 17.4816C30.5291 17.6609 30.9351 17.5544 31.1277 17.2403C31.8814 16.0407 32.1093 14.5841 31.7578 13.2117C31.658 12.8547 31.2882 12.6457 30.9309 12.7442C30.5736 12.8427 30.3632 13.2116 30.4603 13.5694L30.4603 13.5693Z" fill="#373947"/>
<path d="M16.7061 19.667L16.5658 20.3686C16.5378 20.4554 16.5337 20.548 16.5538 20.6369C16.5576 20.7259 16.5852 20.8122 16.6336 20.887C16.7278 21.0335 16.8699 21.1428 17.0357 21.1962L17.2145 21.2202C17.5173 21.2204 17.7828 21.0182 17.8633 20.7263L18.0036 20.0247C18.0315 19.938 18.0356 19.8453 18.0156 19.7565C18.0117 19.6675 17.9842 19.5811 17.9358 19.5063C17.8415 19.3598 17.6994 19.2506 17.5337 19.1971L17.3548 19.1731C17.0521 19.173 16.7865 19.3751 16.7061 19.667Z" fill="#373947"/>
<path d="M31.5959 54.6011C30.9622 53.5067 32.4371 51.6788 32.4371 51.6788L20.184 42.4418C20.184 42.4418 15.8895 45.4994 15.7004 47.2084C15.7004 47.2084 32.0759 55.4302 31.5959 54.6011Z" fill="#F0F3FC"/>
<path d="M34.1767 53.948C34.1767 53.948 33.6472 51.9058 32.437 51.6788L36.0102 41.8047C37.5498 41.0117 37.7614 44.215 37.7614 44.215L34.1767 53.948Z" fill="#F0F3FC"/>
<path d="M43.171 60.2036H43.1663C43.1663 59.7603 41.8008 59.401 40.1165 59.401C38.4322 59.401 37.0668 59.7603 37.0668 60.2036H37.0621L36.7204 76.6947C36.7084 77.2729 36.9732 77.8221 37.433 78.1729C37.7421 78.5186 38.8246 78.7743 40.1166 78.7743C41.4085 78.7743 42.491 78.5186 42.8001 78.1729C43.2599 77.8221 43.5247 77.2729 43.5127 76.6947L43.171 60.2036Z" fill="#F0F3FC"/>
<ellipse cx="40.1167" cy="60.2036" rx="3.04976" ry="0.802604" fill="#F0F3FC"/>
<path d="M6.72979 73.983L10.8452 97.8732L27.3744 91.2742C31.3702 94.3536 31.6635 105.645 31.6635 105.645C31.6635 105.645 10.8015 126.45 3.58677 118.109C-9.09725 103.445 -6.53019 57.9916 0.299922 53.948" fill="#FFC562"/>
<circle cx="33.1417" cy="60.2373" r="0.836264" fill="#FFC562"/>
</g>
</svg>
