<svg xmlns="http://www.w3.org/2000/svg" width="76" height="76" fill="none" viewBox="0 0 76 76"><circle cx="38" cy="38" r="38" fill="#FFC562"/><mask id="mask0_444_383" style="mask-type:alpha" width="76" height="76" x="0" y="0" maskUnits="userSpaceOnUse"><circle cx="38" cy="38" r="38" fill="#fff"/></mask><g mask="url(#mask0_444_383)"><ellipse cx="41.198" cy="28.147" fill="#3A3530" rx="17.079" ry="14.737" transform="rotate(-20.0153 41.1976 28.1472)"/><path fill="#FF9763" d="M40.7625 63.7431L51.9893 33.4351L36.9176 36.3961C36.9176 36.3961 31.2363 46.9091 27.1071 51.2745"/><path fill="#3A3530" d="M51.6713 15.1215C51.4245 14.0423 50.9326 13.0344 50.2335 12.176C46.7096 7.8878 38.7588 8.2108 32.4755 12.8977C30.3916 14.4276 28.6622 16.3889 27.405 18.6478C24.3941 19.1532 21.5478 20.3718 19.104 22.2018C11.9075 27.5693 9.94334 36.6299 14.7172 42.4392C19.4906 48.2485 29.1945 48.6063 36.3908 43.2385C40.4371 40.2206 42.8291 36.0351 43.2991 31.9164C44.1008 30.8402 44.7571 29.663 45.251 28.4151C50.2459 24.6824 52.6661 19.3175 51.6713 15.1215Z"/><path fill="#FF9763" d="M39.089 47.2851C50.656 56.4313 61.9474 47.0278 50.2103 17.666C51.1551 21.5281 48.8161 26.4755 44.0079 29.9265C43.0213 32.4034 41.081 34.8742 38.3214 36.8509C35.8821 38.5986 34.2086 38.7265 31.6357 39.1521L32.7334 40.2373"/><path fill="#FF9763" d="M35.8306 44.1402C25.2164 39.3992 31.798 28.0084 40.0472 36.1732Z"/><path fill="#FF9763" d="M35.8306 44.1402C25.2164 39.3992 31.798 28.0084 40.0472 36.1732Z"/><path fill="#F0F3FC" d="M24.4248 54.7867L28.8883 47.9094L41.9687 62.0013L41.3768 67.5124"/><path fill="#FF9763" d="M109.368 60.0802C109.368 60.0802 97.2721 61.2162 96.4657 61.8654C95.6593 62.5145 62.5292 96.0538 62.5292 96.0538L35.7004 69.7322L25.1832 88.1557L59.9183 113.868C61.8144 115.272 64.2124 115.817 66.5288 115.369C68.8453 114.921 70.8678 113.523 72.1043 111.513L97.1108 71.1157C97.1108 71.1157 99.2085 70.8306 110.094 73.3866C111.013 72.9488 124.596 65.92 124.596 65.92C124.596 65.92 124.635 62.9285 111.255 68.9115C111.255 68.9115 103.981 66.4075 102.771 65.1904C101.562 63.9732 110.239 64.3148 109.368 60.0802Z"/><path fill="#BB393C" d="M40.1816 107.63C52.3889 108.295 56.3895 89.6163 56.3895 89.6163C56.3895 89.6163 30.5053 61.1352 23.0062 63.326C15.507 65.5168 19.8614 82.5569 19.8614 82.5569L40.1816 107.63Z"/><path fill="#BB393C" d="M20.0782 128.818C20.0782 128.818 17.3332 113.596 29.4202 104.918C41.5072 96.2401 41.9687 65.1361 41.9687 65.1361L25.3912 52.8511C25.3912 52.8511 -0.0847233 68.0724 -17.7502 100.614L20.0782 128.818Z"/><path fill="#FF9763" d="M110.525 62.4559C110.525 62.4559 97.8087 63.6428 96.9609 64.3209C96.1132 64.9991 61.2825 100.04 61.2825 100.04L37.4968 76.8494L22.0197 91.7881L58.5376 118.652C60.5324 120.119 63.049 120.688 65.4809 120.221C67.9129 119.754 70.0398 118.294 71.3491 116.192L97.6392 73.9854C97.6392 73.9854 99.8445 73.6875 111.289 76.3579C112.255 75.9005 126.535 68.5571 126.535 68.5571C126.535 68.5571 126.576 65.4317 112.509 71.6825C112.509 71.6825 104.862 69.0664 103.59 67.7948C102.318 66.5232 111.442 66.88 110.525 62.4559Z"/><path fill="#BB393C" d="M16.4246 85.9386L37.7879 112.134C50.6218 112.829 54.8277 93.314 54.8277 93.314C54.8277 93.314 45.3212 82.919 35.9179 74.8895"/><circle cx="38.59" cy="70.101" r=".953" fill="#F0F3FC"/><path fill="#190000" d="M52.1298 31.7344V31.7344C52.7517 31.7824 53.217 32.3255 53.1689 32.9475L53.0221 34.8493C52.9741 35.4713 52.431 35.9365 51.809 35.8885V35.8885C51.1871 35.8405 50.7219 35.2974 50.7699 34.6755L50.9167 32.7736C50.9647 32.1516 51.5078 31.6864 52.1298 31.7344V31.7344Z"/><path fill="#190000" d="M53.4227 28.0447C50.0328 27.6311 49.1668 28.9828 51.2691 29.3795C53.3713 29.7762 55.6374 28.3149 53.4227 28.0447Z"/><path fill="#FF9763" d="M54.3322 33.8115C59.1326 37.0717 57.068 41.3772 54.2729 40.1183Z"/><circle cx="44.849" cy="36.099" r="3.793" fill="#E84B23"/><path stroke="#993443" stroke-linecap="round" stroke-linejoin="round" stroke-width="3.659" d="M47.7659 39.1792C49.5124 41.2794 51.8355 40.7355 51.8355 40.7355"/></g></svg>