<svg xmlns="http://www.w3.org/2000/svg" width="61" height="61" fill="none" viewBox="0 0 61 61"><path fill="#DBDBDB" d="M30.5 0C13.6512 0 0 13.6512 0 30.5C0 47.3488 13.6512 61 30.5 61C47.3488 61 61 47.3488 61 30.5C61 13.6512 47.3488 0 30.5 0ZM30.5 11.8065C36.477 11.8065 41.3226 16.652 41.3226 22.629C41.3226 28.606 36.477 33.4516 30.5 33.4516C24.523 33.4516 19.6774 28.606 19.6774 22.629C19.6774 16.652 24.523 11.8065 30.5 11.8065ZM30.5 54.1129C23.2808 54.1129 16.8119 50.8415 12.4829 45.7254C14.795 41.3718 19.3208 38.371 24.5968 38.371C24.8919 38.371 25.1871 38.4202 25.47 38.5063C27.0688 39.0228 28.7413 39.3548 30.5 39.3548C32.2587 39.3548 33.9436 39.0228 35.53 38.5063C35.8129 38.4202 36.1081 38.371 36.4032 38.371C41.6792 38.371 46.205 41.3718 48.5171 45.7254C44.1881 50.8415 37.7192 54.1129 30.5 54.1129Z"/></svg>