<svg width="24" height="24" viewBox="0 0 24 21" fill="none" xmlns="http://www.w3.org/2000/svg">
<path d="M7.63053 20.9836H7.5306C5.51736 20.966 3.53325 20.5009 1.7219 19.622C1.38871 19.4655 1.11437 19.2065 0.939044 18.8828C0.763716 18.5591 0.696606 18.1878 0.74754 17.8232C0.802934 17.4562 0.972876 17.116 1.2331 16.8513C1.49333 16.5866 1.83054 16.4108 2.19659 16.3492C3.31912 16.1994 4.39901 15.821 5.36951 15.2374C3.68457 13.92 2.3874 12.1714 1.61549 10.1767C0.843585 8.18207 0.625684 6.01575 0.984884 3.90732C1.03359 3.57336 1.17721 3.26041 1.39867 3.00574C1.62013 2.75106 1.9101 2.56537 2.23407 2.47076C2.54925 2.37178 2.88657 2.36755 3.20414 2.4586C3.52171 2.54965 3.80554 2.73197 4.0204 2.98293C4.74992 3.93953 5.66669 4.73748 6.71476 5.3281C7.76284 5.91871 8.92025 6.28962 10.1164 6.41818C10.1735 4.94646 10.806 3.55595 11.8777 2.54571C12.4129 2.03327 13.0447 1.63245 13.7363 1.36662C14.4279 1.10079 15.1655 0.975265 15.9061 0.997355C16.6467 1.01945 17.3755 1.18871 18.0501 1.49529C18.7246 1.80187 19.3314 2.23963 19.835 2.78306C19.9663 2.89907 20.1293 2.973 20.303 2.99527C20.4767 3.01754 20.6532 2.98713 20.8094 2.90798C21.1072 2.7675 21.4389 2.71462 21.7657 2.75551C22.0924 2.79639 22.4008 2.92935 22.6549 3.13888C22.9089 3.34841 23.0982 3.62586 23.2005 3.93887C23.3028 4.25188 23.314 4.58753 23.2328 4.90667C22.9447 6.09353 22.3988 7.2024 21.6339 8.15454C21.4653 11.7081 19.8986 15.051 17.2754 17.4542C14.6522 19.8574 11.1853 21.1261 7.63053 20.9836ZM7.63053 18.4853H7.73046C9.18285 18.5352 10.6307 18.2964 11.9901 17.7826C13.3495 17.2688 14.5933 16.4902 15.6496 15.4921C16.7058 14.4939 17.5534 13.2961 18.1432 11.9679C18.733 10.6397 19.0533 9.20769 19.0855 7.7548C19.1062 7.35663 19.2704 6.97941 19.5477 6.693C19.8524 6.30731 20.1122 5.88822 20.3222 5.44381C19.8722 5.44467 19.4271 5.35054 19.0159 5.16757C18.6048 4.9846 18.2369 4.71691 17.9363 4.38201C17.6472 4.09539 17.3039 3.86932 16.9264 3.71703C16.5489 3.56473 16.1448 3.48928 15.7377 3.49509C15.3266 3.48446 14.9175 3.55513 14.5337 3.70305C14.15 3.85096 13.7993 4.07321 13.5017 4.35703C13.1002 4.73803 12.8058 5.2178 12.6479 5.74832C12.4901 6.27885 12.4743 6.84152 12.6023 7.38005L12.9271 8.80411L11.4655 8.90405C9.96787 9.02617 8.46157 8.82131 7.05093 8.30364C5.64029 7.78598 4.35903 6.96788 3.29587 5.90601C3.25027 7.55043 3.66163 9.17528 4.48421 10.5999C5.30679 12.0245 6.50835 13.1931 7.95532 13.9757L9.14204 14.6503L8.35506 15.7745C7.50398 16.8907 6.33786 17.7261 5.00725 18.173C5.86083 18.3869 6.73808 18.4919 7.61804 18.4853H7.63053Z" fill="#B3B3B3"/>
</svg>
